<?xml version='1.0' encoding='utf-8'?>
<svg xmlns="http://www.w3.org/2000/svg" version="1.1" id="Layer_1" x="0px" y="0px" width="503.488px" height="413.954px" viewBox="0 0 503.488 413.954" enable-background="new 0 0 503.488 413.954"> <path fill="#CC6DAA" d="M103.542,50.099L63.646,39.761l11.195,30.855c1.902,3.498,3.414,7.341,4.167,11.229l35.766,95.701 l121.823-92.97L103.542,50.099"/> <radialGradient id="SVGID_1_" cx="803.8691" cy="305.5708" r="171.8705" gradientTransform="matrix(-0.0023 0.9465 -1.0483 -0.0026 596.0396 -530.5487)" gradientUnits="userSpaceOnUse"> <stop offset="0" style="stop-color:#FDED40"/> <stop offset="1" style="stop-color:#E6B623"/> </radialGradient> <path fill="url(#SVGID_1_)" d="M273.441,398.002c-95.822-0.237-173.314-75.863-173.082-168.915 c0.229-93.051,78.095-168.292,173.917-168.053c95.822,0.237,173.314,75.863,173.084,168.915 C447.129,323,369.264,398.24,273.441,398.002z"/> <path fill="#603813" d="M234.485,206.722c0,10.475-16.137-5.494-36.043-5.494s-36.043,15.969-36.043,5.494 c0-10.475,16.137-18.967,36.043-18.967S234.485,196.247,234.485,206.722z"/> <path fill="#603813" d="M371.404,206.722c0,10.475-16.137-5.494-36.043-5.494s-36.043,15.969-36.043,5.494 c0-10.475,16.137-18.967,36.043-18.967S371.404,196.247,371.404,206.722z"/> <path fill="#603813" d="M223.124,153.214c-0.031,3.502-24.238-1.324-28.652-1.01c-11.169,0.795-58.837,9.665-58.989,7.513 c-0.237-3.338,30.836-15.906,58.867-17.9C222.381,139.822,223.202,144.782,223.124,153.214z"/> <path fill="#603813" d="M312.861,155.915c-0.021,4.218,24.135-1.958,28.521-1.646c11.1,0.79,58.389,10.759,58.574,8.165 c0.285-4.024-30.439-18.697-58.299-20.679C313.801,139.772,312.91,145.759,312.861,155.915z"/> <path fill="#603813" d="M302.77,282.25c0,10.047-18.428,18.191-41.156,18.191c-22.223,0,28.557-6.84,27.717-18.191 c-0.799-10.805-50.793-18.191-27.717-18.191C284.342,264.058,302.77,272.203,302.77,282.25z"/> <path fill="#603813" d="M302.77,247.71c0,10.047-18.428,18.191-41.156,18.191c-22.223,0,28.557-6.839,27.717-18.191 c-0.799-10.805-50.793-18.191-27.717-18.191C284.342,229.519,302.77,237.664,302.77,247.71z"/> <path opacity="0.65" fill="#BE1E2D" d="M173.593,218.563c-1.128-5.397-5.036-8.468-9.643-9.546 c-1.329-0.958-3.136-1.035-4.704-0.429c-1.821,0.079-3.642,0.431-5.357,1.03c-0.545,0.139-1.086,0.316-1.618,0.541 c-5.661,0.617-10.663,3.541-12.774,9.594c-2.46,7.051,0.396,14.139,6.163,18.484c6.536,4.926,16.266,3.212,22.289-1.45 C173.302,232.644,174.911,224.869,173.593,218.563z"/> <path opacity="0.65" fill="#BE1E2D" d="M394.359,209.98c-3.854-2.943-8.551-3.846-12.965-3.018c-0.834,0-1.678,0.045-2.533,0.154 c-1.781,0.226-3.064,1.186-3.848,2.43c-1.861,1.222-3.525,2.809-4.852,4.738c-1.65,2.398-1.998,4.625-1.494,6.613 c-2.906,5.687-1.895,12.745,4.605,16.246c1.414,0.762,2.871,1.293,4.336,1.623c0.656,0.295,1.338,0.556,2.051,0.762 c7.424,2.146,15.229-1.23,19.617-7.268C404.502,225.076,400.801,214.902,394.359,209.98z"/> <g> <g> <path fill="#00B9C1" d="M79.905,78.538c12.556-2.156,22.675-10.817,35.199-12.939c9.522-1.613,5.471-16.067-3.987-14.464 c-12.564,2.129-22.682,10.79-35.199,12.939C66.398,65.708,70.447,80.162,79.905,78.538L79.905,78.538z"/> </g> </g> <g> <g> <path fill="#00B9C1" d="M90.608,109.232c13.967-7.274,28.056-14.329,43.149-18.974c13.92-4.283,28.028-8.188,42.265-11.262 c9.454-2.042,5.443-16.501-3.987-14.464c-14.267,3.081-28.263,7.167-42.265,11.262c-16.32,4.773-31.709,12.662-46.733,20.486 C74.456,100.75,82.041,113.694,90.608,109.232L90.608,109.232z"/> </g> </g> <g> <g> <path fill="#00B9C1" d="M99.354,130.202c13.553-4.523,27.1-10.165,41.506-9.732c9.678,0.291,9.65-14.71,0-15 c-15.882-0.478-30.665,5.319-45.494,10.268C86.24,118.784,90.153,133.273,99.354,130.202L99.354,130.202z"/> </g> </g> <path fill="none" d="M125.294,55.824c2.51,0.507,5.248,0.47,7.631,1.243c1.152,0.374,2.25,1.042,3.436,1.299"/> <g> <g> <path fill="#26A9E0" d="M15.385,203.902c2.145,4.231,4.842,8.127,8.173,11.519c2.864,2.915,7.736,2.87,10.606,0 c2.909-2.909,2.863-7.692,0-10.607c-0.608-0.62-1.198-1.252-1.771-1.904c-0.274-0.318-0.542-0.641-0.803-0.97 c1.095,1.349-0.162-0.285-0.305-0.491c-1.122-1.62-2.059-3.363-2.948-5.118c-1.847-3.644-6.896-4.662-10.262-2.69 C14.395,195.796,13.537,200.255,15.385,203.902L15.385,203.902z"/> </g> </g> <g> <g> <path fill="#26A9E0" d="M431.629,61.123c-1.081,3.309-1.918,6.691-3,10c-1.27,3.886,1.438,8.181,5.238,9.226 c4.083,1.123,7.957-1.356,9.227-5.238c1.081-3.309,1.918-6.691,3-10c1.27-3.886-1.438-8.181-5.238-9.226 C436.772,54.761,432.898,57.24,431.629,61.123L431.629,61.123z"/> </g> </g> <g> <g> <path fill="#26A9E0" d="M460.076,295.592c3.469,1.59,6.998,2.022,10.785,2.024c4.089,0.002,7.5-3.413,7.5-7.5 c0-4.09-3.412-7.498-7.5-7.5c-0.948-0.001-1.894-0.014-2.84-0.07c-0.294-0.02-0.588-0.046-0.881-0.078 c1.26,0.186,1.488,0.207,0.688,0.064c-0.627-0.117-2.351-0.886-0.182,0.108c-3.717-1.703-8.045-1.094-10.261,2.69 C455.476,288.592,456.359,293.889,460.076,295.592L460.076,295.592z"/> </g> </g> <g> <g> <path fill="#26A9E0" d="M281.855,78.348c2.18-0.584,4.227-1.46,6.294-2.36c0.766-0.333,1.52-0.697,2.276-1.051 c0.362-0.169,0.726-0.336,1.09-0.499c-1.708,0.773,0.016,0.024,0.34-0.09c3.853-1.356,6.38-5.076,5.238-9.226 c-1.027-3.733-5.367-6.597-9.227-5.238c-1.901,0.669-3.742,1.507-5.567,2.36c-0.267,0.125-2.701,1.199-1.137,0.548 c-1.072,0.445-2.176,0.791-3.296,1.091c-3.946,1.058-6.316,5.306-5.238,9.226C273.718,77.069,277.908,79.406,281.855,78.348 L281.855,78.348z"/> </g> </g> <g> <g> <path fill="#FAAF40" d="M89.558,265.813c-1.333,1.334-2.667,2.667-4,4c-2.89,2.89-2.89,7.718,0,10.607 c2.89,2.889,7.717,2.889,10.606,0c1.333-1.334,2.667-2.667,4-4c2.89-2.89,2.89-7.718,0-10.607 C97.274,262.924,92.447,262.924,89.558,265.813L89.558,265.813z"/> </g> </g> <g> <g> <path fill="#FAAF40" d="M376.558,86.419c1.286,1.287,2.57,2.575,3.704,4c-0.391-0.506-0.782-1.012-1.173-1.518 c0.484,0.638,0.923,1.291,1.297,2c1.904,3.612,6.852,4.688,10.261,2.69c3.639-2.132,4.598-6.645,2.69-10.262 c-1.51-2.863-3.902-5.247-6.172-7.518c-2.89-2.89-7.718-2.889-10.607,0C373.668,78.703,373.669,83.529,376.558,86.419 L376.558,86.419z"/> </g> </g> <g> <g> <path fill="#FAAF40" d="M210.075,61.592c0.354,0.189,0.679,0.396,0.998,0.639c-0.506-0.391-1.012-0.782-1.518-1.173 c0.451,0.377,0.84,0.79,1.204,1.251c-0.391-0.506-0.782-1.012-1.173-1.518c0.716,0.97,1.261,2.036,1.799,3.111 c1.829,3.653,6.909,4.654,10.262,2.69c3.694-2.164,4.521-6.605,2.69-10.262c-1.544-3.085-3.565-6.021-6.69-7.69 c-3.606-1.927-8.139-0.934-10.262,2.69C205.379,54.755,206.474,59.667,210.075,61.592L210.075,61.592z"/> </g> </g> <g> <g> <path fill="#FAAF40" d="M477.076,183.592c1.03,0.504,2.089,0.949,3.125,1.441c0.637,0.302,1.254,0.641,1.858,1.002 c0.243,0.149,0.479,0.305,0.712,0.469c-1.749-1.192-0.626-0.478-0.214-0.085c2.959,2.817,7.665,2.942,10.607,0 c2.836-2.837,2.96-7.788,0-10.606c-2.546-2.425-5.435-3.666-8.519-5.173c-3.673-1.795-8.083-1.028-10.261,2.69 C472.437,176.658,473.404,181.798,477.076,183.592L477.076,183.592z"/> </g> </g> <g> <g> <path fill="#8BC53F" d="M25.861,315.617c2.667,0,5.333,0,8,0c4.088,0,7.5-3.411,7.5-7.5s-3.412-7.5-7.5-7.5c-2.667,0-5.333,0-8,0 c-4.088,0-7.5,3.411-7.5,7.5S21.772,315.617,25.861,315.617L25.861,315.617z"/> </g> </g> <g> <g> <path fill="#8BC53F" d="M303.386,27.902c2.032,3.139,3.352,6.657,5,10c1.807,3.665,6.925,4.645,10.261,2.69 c3.71-2.173,4.499-6.595,2.69-10.262c-1.647-3.343-2.967-6.861-5-10c-2.217-3.424-6.612-4.828-10.261-2.69 C302.672,19.634,301.161,24.466,303.386,27.902L303.386,27.902z"/> </g> </g> <g> <g> <path fill="#8BC53F" d="M432.867,117.884c-3.596,1.268-6.615,3.238-9.31,5.929c-2.891,2.888-2.888,7.718,0,10.606 c2.892,2.891,7.716,2.888,10.607,0c0.674-0.673,1.369-1.314,2.12-1.902c-0.506,0.391-1.012,0.782-1.518,1.173 c0.974-0.73,2-1.335,3.119-1.815c-0.597,0.252-1.194,0.504-1.791,0.756c0.25-0.103,0.503-0.196,0.76-0.282 c3.852-1.358,6.38-5.074,5.238-9.226C441.066,119.391,436.726,116.524,432.867,117.884L432.867,117.884z"/> </g> </g> <g> <g> <path fill="#8BC53F" d="M177.867,119.348c4.888,1.055,9.388,3.133,14,5c3.796,1.537,8.236-1.641,9.226-5.238 c1.18-4.289-1.452-7.693-5.238-9.226c-4.612-1.868-9.112-3.945-14-5c-3.992-0.862-8.097,1.134-9.226,5.238 C171.591,113.894,173.87,118.486,177.867,119.348L177.867,119.348z"/> </g> </g> <g> <g> <path fill="#8BC53F" d="M78.361,135.116c0,0.714-0.008,1.424-0.096,2.134c0.089-0.665,0.179-1.329,0.268-1.994 c-0.067,0.417-0.165,0.811-0.316,1.205c0.252-0.597,0.504-1.194,0.756-1.792c-0.105,0.227-0.219,0.432-0.357,0.64 c0.391-0.506,0.782-1.012,1.173-1.518c-0.161,0.206-0.326,0.382-0.519,0.559c0.506-0.391,1.012-0.782,1.518-1.173 c-0.229,0.177-0.457,0.323-0.712,0.462c-3.582,1.959-4.711,6.811-2.69,10.262c2.108,3.599,6.674,4.652,10.262,2.69 c2.616-1.431,4.08-3.667,5.122-6.372c0.601-1.559,0.591-3.436,0.592-5.104c0.003-4.088-3.414-7.5-7.5-7.5 C81.771,127.616,78.364,131.028,78.361,135.116L78.361,135.116z"/> </g> </g> </svg>