<?xml version="1.0" encoding="utf-8"?>
<!-- Generator: Adobe Illustrator 22.1.0, SVG Export Plug-In . SVG Version: 6.00 Build 0)  -->
<svg version="1.1" id="Layer_1" xmlns="http://www.w3.org/2000/svg" xmlns:xlink="http://www.w3.org/1999/xlink" x="0px" y="0px"
	 viewBox="0 0 5000 5000" style="enable-background:new 0 0 5000 5000;" xml:space="preserve">
<style type="text/css">
	.st0{fill:#F7DB32;}
	.st1{fill:url(#SVGID_1_);}
</style>
<circle class="st0" cx="2500" cy="2500" r="2007"/>
<radialGradient id="SVGID_1_" cx="2500" cy="-1658.1102" r="2007" gradientTransform="matrix(1 0 0 1 0 4158.1104)" gradientUnits="userSpaceOnUse">
	<stop  offset="0" style="stop-color:#FFFFFF;stop-opacity:0"/>
	<stop  offset="0.1322" style="stop-color:#FFFDFB;stop-opacity:0.1322"/>
	<stop  offset="0.2677" style="stop-color:#FEF8EF;stop-opacity:0.2677"/>
	<stop  offset="0.4047" style="stop-color:#FCEFDA;stop-opacity:0.4047"/>
	<stop  offset="0.5428" style="stop-color:#FAE2BD;stop-opacity:0.5428"/>
	<stop  offset="0.6819" style="stop-color:#F8D198;stop-opacity:0.6819"/>
	<stop  offset="0.8216" style="stop-color:#F5BD6B;stop-opacity:0.8216"/>
	<stop  offset="0.9594" style="stop-color:#F1A636;stop-opacity:0.9594"/>
	<stop  offset="1" style="stop-color:#F09E25"/>
</radialGradient>
<circle class="st1" cx="2500" cy="2500" r="2007"/>
<g>
	<path d="M1274.2,1480.2l7.7,5.7c2.6,1.9,5.2,3.8,7.9,5.7c5.3,3.7,10.6,7.5,16,11.1c10.8,7.4,21.6,14.5,32.6,21.4
		c21.9,13.9,44.2,26.9,66.6,39.2c22.5,12.2,45.1,23.7,68.1,34.2c22.9,10.6,46,20.3,69.3,28.8c23.2,8.7,46.6,16.2,70,22.5
		c3,0.8,5.9,1.7,8.8,2.4l8.8,2.2l8.7,2.2l8.8,1.9l8.7,2l8.7,1.7l8.7,1.7c2.9,0.6,5.8,1,8.7,1.5c46.4,7.9,92.2,11.3,136.5,8.1
		c2.8-0.2,5.5-0.4,8.3-0.6l8.2-1c5.5-0.7,10.9-1.4,16.3-2.5c2.7-0.5,5.4-1.1,8.1-1.6l4-0.8c1.3-0.3,2.7-0.7,4-1
		c5.3-1.3,10.6-2.7,15.8-4.1c20.9-6,40.9-14.2,60.3-22.5l7.3-3.1c2.4-1,4.8-1.9,7.2-3.1c4.8-2.2,9.6-4.3,14.4-6.3
		c4.8-2.1,9.6-4.4,14.4-6.3l3.6-1.5c1.2-0.5,2.4-0.9,3.6-1.5c2.4-1.1,4.8-2.1,7.2-3.1s4.9-2,7.3-2.9c1.3-0.5,2.5-1,3.7-1.4l3.6-1.5
		c2.5-1,4.9-2,7.4-2.9c2.4-1,4.9-1.9,7.4-2.8c5-1.9,9.9-4,15-5.8c2.5-0.9,5-1.8,7.6-2.7l7.6-3l7.7-2.8c2.6-0.9,5.2-1.8,7.8-2.8
		c5.2-2.1,10.4-4.1,15.7-6.1c2.7-1,5.4-1.9,8-3s5.2-2.2,7.9-3.2c5.3-2.2,10.8-4.1,16.2-6.3l8.1-3.4l8.3-3.3c2.7-1.1,5.5-2.2,8.3-3.3
		l8.3-3.5c5.6-2.3,11.3-4.6,17-6.8c2.9-1.1,5.6-2.4,8.5-3.6c2.9-1.3,5.8-2.4,8.7-3.6c23.3-9.4,47.3-19.5,72.7-29.4l4.8-1.8
		c1.6-0.6,3.2-1.3,4.8-1.9c3.2-1.3,6.4-2.6,9.7-3.8c6.5-2.5,13.1-5,19.9-7.4c13.4-5,27.1-10.1,42.3-14.2l17.5,14.7
		c-2.1,15.6-5.5,30.4-9.4,45c-2.2,7.2-4.5,14.3-6.9,21.4c-1.1,3.6-2.4,7.1-3.7,10.6c-0.6,1.8-1.2,3.6-1.9,5.3l-2.1,5.1
		c-2.9,6.9-5.9,13.7-9,20.4c-1.5,3.4-3.1,6.7-4.7,10.1c-1.7,3.3-3.4,6.6-5.2,9.8c-3.5,6.6-7.1,13-10.8,19.5l-2.8,4.8l-3,4.7
		c-2,3.1-4.1,6.2-6.1,9.3c-4.1,6.3-8.2,12.4-12.6,18.5c-4.5,5.9-9.1,11.8-13.7,17.7l-7,8.8c-2.5,2.8-5,5.6-7.5,8.4l-7.6,8.4
		l-7.7,8.3c-2.6,2.8-5.4,5.4-8.1,8c-2.7,2.7-5.4,5.3-8.2,7.9c-2.7,2.6-5.5,5.2-8.3,7.8s-5.8,5-8.7,7.5c-5.9,4.9-11.8,9.8-17.8,14.6
		c-6.1,4.7-12.4,9.2-18.7,13.7l-9.5,6.7c-3.3,2.1-6.6,4.1-9.9,6.2c-3.3,2-6.7,4-10,6c-3.4,2-6.7,4-10.2,5.8
		c-3.4,1.8-6.9,3.6-10.4,5.3c-3.5,1.8-7,3.5-10.5,5.2l-5.3,2.5c-1.8,0.8-3.6,1.5-5.4,2.3c-3.6,1.5-7.2,3-10.9,4.4
		c-3.6,1.4-7.3,2.9-11,4.2c-3.7,1.4-7.5,2.5-11.3,3.7s-7.6,2.3-11.4,3.4s-7.5,2.2-11.4,3.1c-7.7,1.9-15.4,3.5-23.2,5.1
		c-7.7,1.6-15.7,2.5-23.5,3.7c-31.5,4.1-63.3,5.1-94.5,4.2l-23.4-1c-1.9-0.1-3.9-0.2-5.8-0.3l-5.8-0.5c-3.9-0.3-7.8-0.6-11.6-0.9
		l-5.8-0.4c-1.9-0.1-3.8-0.3-5.7-0.5l-11.5-1.2l-11.4-1.1c-3.8-0.4-7.6-0.9-11.4-1.4c-30.3-3.7-60-9.4-88.8-17
		c-7.2-1.9-14.4-4.1-21.5-6.1c-3.6-1-7.1-2.2-10.6-3.3l-10.5-3.4l-5.2-1.7l-5.2-1.9l-10.3-3.8c-6.9-2.5-13.6-5.3-20.4-8
		c-3.4-1.4-6.8-2.7-10.1-4.2l-10-4.4l-9.9-4.4l-9.8-4.7l-9.7-4.7l-9.6-5l-9.5-5c-3.2-1.6-6.3-3.5-9.4-5.2c-25-13.9-48.9-29-72-45
		c-22.9-16.2-45-33.1-66.2-50.9c-5.3-4.4-10.5-9-15.7-13.5c-5.3-4.5-10.3-9.2-15.4-13.8c-5-4.6-10-9.3-15-14
		c-4.9-4.8-9.8-9.5-14.6-14.4c-4.8-4.8-9.6-9.7-14.3-14.6s-9.4-9.9-14-14.9c-9.1-10.1-18.2-20.2-26.9-30.6
		c-8.7-10.4-17.2-20.9-25.4-31.7c-4.1-5.4-8.1-10.8-12.1-16.3c-1.9-2.7-3.9-5.5-5.8-8.3c-1.9-2.9-3.8-5.6-5.8-8.6L1274.2,1480.2z"/>
	<path d="M3742.6,1495.9c-2,3-3.8,5.8-5.8,8.6c-1.9,2.8-3.8,5.5-5.8,8.3c-4,5.5-8,10.9-12.1,16.3c-8.2,10.8-16.7,21.3-25.4,31.7
		s-17.7,20.5-26.9,30.6c-4.6,5-9.2,10-14,14.9c-4.7,4.9-9.5,9.7-14.3,14.6s-9.7,9.6-14.6,14.4c-4.9,4.6-9.9,9.4-15,14
		s-10.2,9.3-15.4,13.8s-10.4,9.1-15.7,13.5c-21.1,17.8-43.2,34.8-66.2,50.9c-23.1,15.9-47.1,31-72,45c-3.1,1.7-6.2,3.5-9.4,5.2
		l-9.5,5l-9.6,5l-9.7,4.7l-9.8,4.7l-9.9,4.4l-10,4.4c-3.3,1.5-6.7,2.8-10.1,4.2c-6.7,2.7-13.5,5.5-20.4,8l-10.3,3.8l-5.2,1.9
		l-5.2,1.7l-10.5,3.4c-3.5,1.1-7,2.3-10.6,3.3c-7.2,2-14.3,4.2-21.5,6.1c-28.8,7.6-58.5,13.3-88.7,17c-3.8,0.5-7.6,1-11.4,1.4
		l-11.4,1.1l-11.5,1.2c-1.9,0.2-3.8,0.4-5.7,0.5l-5.8,0.4c-3.9,0.3-7.7,0.6-11.6,0.9l-5.8,0.5c-1.9,0.2-3.9,0.2-5.8,0.3l-23.4,1
		c-31.3,0.9-63-0.2-94.5-4.2c-7.8-1.2-15.7-2.1-23.5-3.7c-7.7-1.6-15.5-3.3-23.2-5.1c-3.8-0.8-7.6-2-11.4-3.1
		c-3.8-1.1-7.6-2.2-11.4-3.4s-7.6-2.3-11.3-3.7c-3.7-1.3-7.3-2.8-11-4.2c-3.6-1.4-7.3-2.9-10.9-4.4c-1.8-0.8-3.6-1.5-5.4-2.3
		l-5.3-2.5c-3.5-1.7-7-3.4-10.5-5.2c-3.5-1.7-6.9-3.5-10.4-5.3s-6.8-3.8-10.2-5.8c-3.3-2-6.7-3.9-10-6s-6.6-4.1-9.9-6.2l-9.5-6.7
		c-6.3-4.5-12.6-9-18.7-13.7c-6-4.8-11.9-9.7-17.8-14.6c-2.9-2.5-5.9-4.9-8.7-7.5s-5.5-5.2-8.3-7.8c-2.7-2.6-5.5-5.3-8.2-7.9
		c-2.8-2.6-5.5-5.3-8.1-8l-7.7-8.3l-7.6-8.4c-2.5-2.8-5.1-5.5-7.5-8.4l-7-8.8c-4.7-5.8-9.2-11.8-13.7-17.7
		c-4.3-6.1-8.5-12.3-12.6-18.5c-2.1-3.1-4.1-6.1-6.1-9.3l-3-4.7l-2.8-4.8c-3.7-6.5-7.3-13-10.8-19.5c-1.8-3.2-3.5-6.5-5.2-9.8
		c-1.6-3.4-3.2-6.7-4.7-10.1c-3.1-6.8-6.1-13.6-9-20.4l-2.1-5.1c-0.6-1.8-1.3-3.5-1.9-5.3c-1.2-3.6-2.5-7-3.7-10.6
		c-2.5-7.1-4.8-14.2-6.9-21.4c-3.9-14.6-7.3-29.4-9.4-45l17.5-14.7c15.2,4.2,28.8,9.2,42.3,14.2c6.7,2.4,13.4,4.9,19.9,7.4
		c3.3,1.2,6.5,2.5,9.7,3.8c1.7,0.6,3.2,1.2,4.8,1.9l4.8,1.8c25.5,9.9,49.4,20,72.7,29.4c2.9,1.2,5.9,2.4,8.7,3.6s5.6,2.5,8.5,3.6
		c5.8,2.2,11.4,4.5,17,6.8l8.3,3.5c2.8,1.1,5.5,2.2,8.3,3.3l8.3,3.3l8.1,3.4c5.4,2.2,10.9,4.1,16.2,6.3c2.6,1,5.3,2.1,7.9,3.2
		c2.7,1.1,5.4,2,8,3c5.3,2,10.5,4,15.7,6.1c2.6,1,5.2,1.9,7.8,2.8l7.7,2.8l7.6,3c2.5,0.9,5.1,1.8,7.6,2.7c5.1,1.8,10,3.9,15,5.8
		c2.5,0.9,4.9,1.8,7.4,2.8c2.5,0.9,5,1.9,7.4,2.9l3.6,1.5c1.3,0.4,2.5,0.9,3.7,1.4c2.5,0.9,4.9,1.9,7.3,2.9s4.8,2,7.2,3.1
		c1.2,0.6,2.4,1,3.6,1.5l3.6,1.5c4.9,2,9.6,4.2,14.4,6.3c4.8,2,9.6,4.1,14.4,6.3c2.3,1.1,4.8,2.1,7.2,3.1l7.3,3.1
		c19.4,8.3,39.4,16.4,60.3,22.5c5.2,1.4,10.5,2.8,15.8,4.1c1.3,0.3,2.7,0.7,4,1l4,0.8c2.7,0.6,5.4,1.1,8.1,1.6
		c5.4,1.2,10.8,1.8,16.3,2.5l8.2,1c2.8,0.3,5.5,0.4,8.3,0.6c44.3,3.2,90.1-0.1,136.5-8.1c2.9-0.5,5.8-0.9,8.7-1.5l8.7-1.7l8.7-1.7
		l8.7-2l8.8-1.9l8.7-2.2l8.8-2.2c3-0.8,5.9-1.6,8.8-2.4c23.4-6.3,46.8-13.8,70-22.5c23.3-8.5,46.4-18.2,69.3-28.8
		c22.9-10.4,45.6-22,68.1-34.2c22.5-12.3,44.7-25.3,66.6-39.2c11-6.9,21.8-14.1,32.6-21.4c5.4-3.6,10.7-7.3,16-11.1
		c2.6-1.9,5.3-3.8,7.9-5.7l7.7-5.7L3742.6,1495.9z"/>
</g>
<path d="M1848.8,3240.2c3.2-8.2,6.8-16.3,10.7-24.1c3.9-7.9,7.9-15.6,12.2-23.3c8.5-15.3,17.7-30.1,27.3-44.7
	c19.3-29,40.7-56.7,63.7-83c23-26.4,47.7-51.3,74-74.8c26.2-23.6,54-45.7,83.3-66.1c58.6-40.9,123.1-75.2,192.7-100.3
	c34.8-12.5,70.7-22.7,107.5-30.2s74.6-12.1,112.6-13.7c38-1.6,76.4-0.2,114.3,4.4c38,4.7,75.5,12.8,111.9,23.7l13.6,4.2
	c4.5,1.5,9.1,2.8,13.5,4.5c8.9,3.2,17.8,6.6,26.6,9.9c1.1,0.4,2.2,0.8,3.3,1.3l3.3,1.4l6.5,2.8c4.3,1.8,8.7,3.7,13,5.6l6.5,2.8
	c2.1,1,4.3,1.9,6.4,2.9l12.6,6.3l12.5,6.3l6.2,3.2l6.1,3.4c8.1,4.6,16.2,9.2,24.2,13.9c7.9,4.8,15.7,9.9,23.4,14.9l11.6,7.6
	l11.2,8.1c7.4,5.4,14.9,10.7,22.1,16.3c7.1,5.7,14.2,11.5,21.2,17.3l5.2,4.3c1.7,1.4,3.5,2.9,5.1,4.4l10,9.1c3.3,3,6.7,6.1,9.9,9.2
	c3.3,3.1,6.6,6.1,9.8,9.3l9.5,9.6l9.3,9.7l9.2,9.7c3,3.3,5.9,6.7,8.8,10.1c5.8,6.8,11.7,13.4,17.4,20.2c2.9,3.4,5.5,7,8.2,10.4
	c2.7,3.5,5.4,6.9,8.1,10.5l8,10.5l4,5.2c1.3,1.8,2.5,3.6,3.8,5.4c5,7.3,10,14.5,14.8,21.8c2.4,3.7,4.8,7.3,7.2,10.9
	c2.3,3.7,4.5,7.5,6.8,11.3c4.5,7.5,8.9,15.1,13.2,22.6c1.1,1.9,2.2,3.8,3.2,5.7l3,5.8c2,3.9,4,7.7,6,11.7
	c3.9,7.8,7.8,15.6,11.5,23.4c3.6,7.9,7,16,10.3,24.1s6.4,16.3,9.3,24.6c-15.8-8.1-30.6-16.9-45.3-25.5c-7.5-4.2-14.8-8.4-22.1-12.6
	c-3.7-2.1-7.3-4.2-10.8-6.4l-5.4-3.2c-1.8-1-3.7-2-5.5-3c-7.3-4.1-14.5-8.1-21.6-12.3l-10.6-6.2c-3.6-2-7.2-3.9-10.8-5.9
	c-7.2-3.9-14.2-7.9-21.3-11.8l-5.3-3l-5.3-2.8l-10.7-5.6c-7.1-3.7-14-7.6-21-11.2c-7.1-3.5-14.1-7.1-21.1-10.6
	c-3.5-1.8-7-3.5-10.4-5.3l-10.6-5l-10.5-5l-10.4-5.1c-7-3.2-14.1-6.1-21-9.3l-10.4-4.7c-1.7-0.8-3.5-1.5-5.2-2.2l-5.2-2.1
	c-7-2.9-13.9-5.7-20.8-8.7l-20.8-7.9l-10.3-4l-10.4-3.6l-10.4-3.6l-5.1-1.8c-1.7-0.6-3.4-1.2-5.2-1.7c-6.9-2.1-13.8-4.3-20.7-6.5
	l-5.1-1.7l-5.2-1.4l-10.3-2.9l-10.3-2.9c-1.7-0.5-3.4-0.9-5.2-1.3l-5.2-1.2c-6.9-1.6-13.7-3.5-20.6-5c-6.9-1.4-13.8-2.8-20.6-4.3
	c-3.4-0.8-6.9-1.3-10.3-1.9c-3.4-0.6-6.9-1.2-10.3-1.8c-27.4-4.6-54.8-8-82.2-9.8c-27.5-1.6-55-1.9-82.6-0.8
	c-27.6,1.1-55.4,3.6-83.3,7.5c-27.9,3.9-55.9,9.2-84.1,15.6c-56.4,12.8-113.3,30.2-170.7,51.1c-57.4,20.9-115.4,45.1-174.2,71.8
	c-29.4,13.3-59.1,27.2-89.1,41.5C1910.8,3210.3,1880.5,3225,1848.8,3240.2z"/>
</svg>
