<?xml version="1.0" encoding="utf-8"?>
<svg viewBox="0 0 500 500" xmlns="http://www.w3.org/2000/svg">
  <rect y="516.308" width="690.553" height="1.8" fill="#2f2e41" style="" x="-45.691"/>
  <path d="M 233.206 433.447 C 223.36 431.346 213.985 426.92 205.655 420.44 L 206.566 418.986 C 214.723 425.321 223.902 429.643 233.54 431.688 C 248.13 434.75 269.965 433.247 291.117 408.703 C 332.283 360.938 371.574 356.128 371.966 356.084 L 372.11 357.878 C 371.723 357.92 332.982 362.666 292.204 409.981 C 275.546 429.307 258.453 434.655 244.637 434.655 C 240.804 434.651 236.978 434.247 233.206 433.447 Z" fill="#2f2e41" style=""/>
  <circle cx="592.612" cy="366.556" r="12" fill="#2f2e41" style="" transform="matrix(0.770707, 0, 0, 0.900411, -105.389015, 54.796642)"/>
  <circle cx="507.612" cy="422.556" r="12" fill="#2f2e41" style="" transform="matrix(0.770707, 0, 0, 0.900411, -105.389015, 54.796642)"/>
  <path d="M 268.486 81.751 C 260.086 92.328 282.049 118 282.049 118 C 282.049 118 237.573 126.762 241.104 126.23 C 244.631 125.699 242.803 81.993 242.803 81.993 C 242.803 81.993 276.886 71.173 268.486 81.751 Z" fill="#a0616a" style=""/>
  <path d="M 299.44 194.96 L 260.799 218.023 L 239.812 232.075 C 239.812 232.075 215.074 268.479 210.459 290.054 C 205.843 311.629 230.442 351.504 233.228 355.625 C 234.664 357.726 235.951 359.961 237.073 362.31 C 238.034 363.98 246.344 361.822 255.419 359.549 C 264.493 357.276 254.214 341.573 254.214 341.573 C 254.214 341.573 242.632 307.001 241.769 306.223 C 240.963 305.497 238.223 299.519 240.195 296.903 C 242.043 294.592 243.471 291.865 244.392 288.89 C 245.154 286.332 246.243 283.921 247.619 281.74 C 247.619 281.74 282.579 248.573 293.497 237.279 C 304.415 225.986 333.442 233.084 333.442 233.084 C 333.442 233.084 319.738 294.492 316.309 298.64 C 312.881 302.787 312.511 306.474 314.062 313.504 C 315.615 320.533 335.86 313.855 335.86 313.855 L 343.335 290.035 C 343.335 290.035 355.474 259.158 362.063 227.299 C 365.359 211.37 359.067 201.876 351.952 196.364 C 345.109 191.18 336.827 189.254 328.807 190.982 L 293.086 198.303 L 317.861 185.834 Z" fill="#2f2e41" style=""/>
  <path d="M 156.911 135.606 L 110.78 118.943 C 110.78 118.943 92.146 90.881 100.924 85.928 C 109.703 80.976 120.695 110.189 120.695 110.189 L 152.823 112.618 Z" fill="#a0616a" style=""/>
  <path d="M 350.833 106.429 L 391.844 76.654 C 391.844 76.654 403.785 43.991 394.218 41.799 C 384.651 39.606 380.355 71.12 380.355 71.12 L 349.803 82.981 Z" fill="#a0616a" style=""/>
  <path d="M 358.508 72.766 L 359.289 108.054 L 290.167 122.483 C 300.335 147.897 297.752 176.821 323.344 189.497 L 237.083 238.79 C 240.927 200.039 224.893 170.849 209.906 134.559 C 191.651 126.829 170.45 132.497 147.99 143.875 L 143.954 107.261 L 239.428 99.251 L 255.111 106.255 L 271.926 97.992 C 296.64 89.414 332.125 73.104 358.508 72.766 Z" fill="#f50057" style=""/>
  <path d="M 315.493 312.38 C 313.397 314.512 311.446 332.055 311.37 338.421 C 311.294 344.786 318.47 346.43 322.39 346.749 C 326.31 347.066 325.841 349.861 328.429 352.195 C 331.018 354.529 339.525 354.157 350.696 349.752 C 361.867 345.348 343.179 330.912 341.551 330.248 C 339.924 329.585 333.073 309.736 333.073 309.736 C 333.073 309.736 317.589 310.25 315.493 312.38 Z" fill="#2f2e41" style=""/>
  <path d="M 254.397 352.44 C 256.888 353.881 262.58 370.273 264.033 376.41 C 265.487 382.547 258.902 386.26 255.179 387.728 C 251.456 389.196 252.516 391.76 250.518 394.785 C 248.519 397.808 240.209 399.966 228.448 399.013 C 216.687 398.058 231.633 378.561 233.063 377.438 C 234.494 376.314 236.816 355.085 236.816 355.085 C 236.816 355.085 251.907 350.998 254.397 352.44 Z" fill="#2f2e41" style=""/>
  <circle cx="466.93" cy="20.873" r="23.996" fill="#a0616a" style="" transform="matrix(0.770707, 0, 0, 0.900411, -105.389015, 54.796642)"/>
  <path d="M 233.1 71.424 C 230.86 66.203 230.626 60.115 232.458 54.682 C 234.275 49.447 238.308 44.187 247.004 42.617 C 265.973 39.19 276.068 54.714 275.538 59.791 C 275.008 64.869 272.461 77.143 272.461 77.143 C 272.461 77.143 273.598 65.523 268.716 65.112 C 263.834 64.702 244.9 62.97 240.106 68.844 C 237.305 72.092 236.212 76.847 237.247 81.296 Z" fill="#2f2e41" style=""/>
</svg>